<svg width="16" height="20" viewBox="0 0 16 20" fill="none" xmlns="http://www.w3.org/2000/svg">
<path d="M5.18169 20C2.3458 19.9828 0 13.8819 0 10.7749C0 5.6996 3.61274 4.58847 5.00507 4.58847C5.63253 4.58847 6.30253 4.84815 6.89348 5.07795C7.30673 5.23824 7.73411 5.40371 7.97181 5.40371C8.11409 5.40371 8.44937 5.26295 8.74539 5.13945C9.37668 4.87459 10.1622 4.54541 11.077 4.54541C11.0786 4.54541 11.0808 4.54541 11.0824 4.54541C11.7655 4.54541 13.8366 4.70339 15.0817 6.67399L15.3734 7.1359L14.9536 7.4697C14.3539 7.94655 13.2598 8.81638 13.2598 10.5394C13.2598 12.5801 14.4989 13.3649 15.0942 13.7423C15.357 13.9089 15.629 14.0807 15.629 14.4565C15.629 14.7018 13.7711 19.9696 11.0732 19.9696C10.413 19.9696 9.94635 19.7604 9.53474 19.576C9.11825 19.3893 8.75897 19.2284 8.1653 19.2284C7.86437 19.2284 7.48384 19.3784 7.08097 19.5375C6.53044 19.7541 5.90729 20 5.20023 20H5.18169Z" fill="white"/>
<path d="M12.1536 0C12.2387 2.75119 10.0426 4.65984 7.84902 4.54014C7.48756 2.34459 10.0423 0 12.1536 0Z" fill="white"/>
</svg>
