<svg width="1296" height="1510" viewBox="0 0 1296 1510" fill="none" xmlns="http://www.w3.org/2000/svg">
<path d="M3.29564 378.663C-0.27799 381.261 -1.06877 386.264 1.52938 389.838C4.12752 393.411 9.13074 394.202 12.7044 391.604L3.29564 378.663ZM557.888 437.538L550.459 440.504L557.888 437.538ZM1262.3 279.857L1270.1 278.1L1262.3 279.857ZM24.6017 383.175C28.2371 380.664 29.1485 375.682 26.6375 372.046C24.1265 368.411 19.1439 367.499 15.5085 370.01L24.6017 383.175ZM40.5032 353.56C36.7607 355.909 35.6305 360.846 37.9789 364.589C40.3273 368.331 45.2649 369.461 49.0074 367.113L40.5032 353.56ZM74.1567 352.054C77.9934 349.863 79.3276 344.977 77.1366 341.14C74.9455 337.303 70.0591 335.969 66.2223 338.16L74.1567 352.054ZM92.5334 323.842C88.6099 325.874 87.0762 330.701 89.1077 334.625C91.1393 338.549 95.9668 340.082 99.8903 338.051L92.5334 323.842ZM126.171 325.134C130.176 323.27 131.913 318.511 130.048 314.506C128.184 310.5 123.426 308.764 119.42 310.628L126.171 325.134ZM146.874 298.581C142.789 300.264 140.842 304.941 142.526 309.026C144.21 313.11 148.886 315.057 152.971 313.373L146.874 298.581ZM180.261 302.874C184.422 301.389 186.592 296.811 185.106 292.65C183.621 288.489 179.044 286.32 174.883 287.805L180.261 302.874ZM203.43 278.445C199.196 279.708 196.788 284.165 198.051 288.398C199.314 292.632 203.77 295.041 208.004 293.778L203.43 278.445ZM236.16 286.258C240.461 285.247 243.129 280.941 242.118 276.64C241.107 272.339 236.801 269.672 232.5 270.683L236.16 286.258ZM262.069 264.746C257.71 265.468 254.761 269.586 255.483 273.945C256.204 278.304 260.323 281.253 264.682 280.532L262.069 264.746ZM293.435 276.866C297.837 276.478 301.09 272.596 300.703 268.195C300.315 263.794 296.433 260.54 292.032 260.927L293.435 276.866ZM322.33 259.561C317.911 259.562 314.331 263.145 314.332 267.564C314.334 271.982 317.917 275.562 322.335 275.561L322.33 259.561ZM351.09 276.957C355.486 277.397 359.406 274.189 359.846 269.793C360.285 265.396 357.078 261.476 352.682 261.036L351.09 276.957ZM382.832 265.757C378.513 264.823 374.255 267.566 373.321 271.884C372.386 276.203 375.13 280.461 379.448 281.395L382.832 265.757ZM406.964 289.157C411.131 290.625 415.699 288.437 417.167 284.269C418.635 280.102 416.447 275.534 412.279 274.066L406.964 289.157ZM440.443 286.147C436.509 284.135 431.69 285.693 429.678 289.627C427.666 293.561 429.224 298.381 433.158 300.392L440.443 286.147ZM457.601 315.088C461.224 317.618 466.211 316.733 468.741 313.11C471.271 309.488 470.386 304.501 466.764 301.971L457.601 315.088ZM490.613 321.121C487.357 318.135 482.296 318.353 479.31 321.61C476.324 324.866 476.543 329.927 479.799 332.913L490.613 321.121ZM499.668 353.568C502.533 356.931 507.582 357.336 510.945 354.471C514.309 351.606 514.713 346.557 511.849 343.193L499.668 353.568ZM530.271 367.455C527.792 363.797 522.817 362.842 519.16 365.321C515.503 367.8 514.547 372.774 517.026 376.432L530.271 367.455ZM531.975 400.998C534.093 404.875 538.953 406.301 542.831 404.183C546.708 402.065 548.134 397.205 546.016 393.327L531.975 400.998ZM559.374 420.448C557.583 416.409 552.857 414.587 548.818 416.377C544.779 418.168 542.956 422.894 544.747 426.933L559.374 420.448ZM557.095 455.571C559.031 459.542 563.82 461.192 567.792 459.256C571.763 457.319 573.413 452.53 571.476 448.559L557.095 455.571ZM586.049 472.015C583.239 468.605 578.197 468.119 574.787 470.929C571.378 473.739 570.891 478.781 573.701 482.19L586.049 472.015ZM599.736 502.242C603.841 503.877 608.493 501.876 610.128 497.771C611.763 493.666 609.762 489.013 605.657 487.378L599.736 502.242ZM629.701 488.303C625.429 489.427 622.876 493.802 623.999 498.075C625.123 502.347 629.498 504.9 633.771 503.776L629.701 488.303ZM663.215 489.754C666.888 487.298 667.874 482.33 665.418 478.657C662.962 474.984 657.994 473.998 654.321 476.454L663.215 489.754ZM676.479 458.745C673.221 461.729 673 466.79 675.984 470.047C678.969 473.305 684.03 473.527 687.287 470.542L676.479 458.745ZM708.788 448.952C711.782 445.703 711.576 440.642 708.327 437.647C705.079 434.653 700.018 434.859 697.023 438.108L708.788 448.952ZM716.344 415.932C713.523 419.332 713.992 424.375 717.392 427.197C720.793 430.018 725.836 429.548 728.657 426.148L716.344 415.932ZM747.283 402.856C749.987 399.361 749.347 394.337 745.853 391.633C742.358 388.928 737.334 389.569 734.63 393.063L747.283 402.856ZM752.409 369.497C749.786 373.053 750.542 378.062 754.098 380.684C757.653 383.307 762.662 382.551 765.285 378.996L752.409 369.497ZM782.879 354.724C785.446 351.128 784.612 346.132 781.016 343.565C777.42 340.998 772.424 341.832 769.857 345.428L782.879 354.724ZM787.068 321.043C784.537 324.664 785.42 329.652 789.041 332.183C792.663 334.715 797.65 333.831 800.182 330.21L787.068 321.043ZM817.109 305.838C819.621 302.204 818.711 297.221 815.076 294.709C811.442 292.197 806.459 293.107 803.947 296.742L817.109 305.838ZM820.855 272.22C818.349 275.858 819.267 280.84 822.905 283.346C826.544 285.852 831.525 284.935 834.032 281.296L820.855 272.22ZM850.95 256.774C853.463 253.141 852.556 248.157 848.922 245.643C845.289 243.13 840.305 244.038 837.792 247.671L850.95 256.774ZM854.809 223.201C852.275 226.821 853.156 231.809 856.775 234.343C860.395 236.876 865.383 235.996 867.917 232.376L854.809 223.201ZM885.075 208.082C887.642 204.485 886.807 199.489 883.21 196.923C879.614 194.356 874.618 195.191 872.051 198.788L885.075 208.082ZM889.523 174.622C886.91 178.184 887.68 183.191 891.242 185.804C894.805 188.417 899.811 187.648 902.424 184.086L889.523 174.622ZM920.168 160.324C922.845 156.809 922.165 151.789 918.65 149.113C915.135 146.436 910.116 147.116 907.439 150.631L920.168 160.324ZM925.923 126.921C923.163 130.372 923.723 135.406 927.173 138.166C930.623 140.926 935.658 140.366 938.418 136.916L925.923 126.921ZM957.18 114.168C960.048 110.807 959.647 105.757 956.285 102.89C952.924 100.023 947.874 100.423 945.007 103.785L957.18 114.168ZM964.859 81.4283C961.853 84.6669 962.042 89.7287 965.281 92.7342C968.519 95.7397 973.581 95.5508 976.586 92.3122L964.859 81.4283ZM997.177 71.3082C1000.37 68.2494 1000.47 63.1851 997.412 59.9969C994.353 56.8087 989.289 56.7039 986.1 59.7627L997.177 71.3082ZM1008.93 39.4947C1005.51 42.2802 1004.98 47.3185 1007.77 50.7481C1010.55 54.1777 1015.59 54.6998 1019.02 51.9143L1008.93 39.4947ZM1042.37 35.0658C1046.11 32.7221 1047.25 27.7858 1044.91 24.0404C1042.56 20.295 1037.63 19.1586 1033.88 21.5023L1042.37 35.0658ZM1061.68 7.37722C1057.56 8.96199 1055.5 13.5901 1057.08 17.7144C1058.67 21.8386 1063.3 23.8973 1067.42 22.3126L1061.68 7.37722ZM1093.84 16.173C1098.25 15.871 1101.58 12.0528 1101.28 7.64488C1100.97 3.23693 1097.16 -0.0915661 1092.75 0.210464L1093.84 16.173ZM1125.01 4.11557C1120.81 2.75508 1116.3 5.05988 1114.94 9.26348C1113.57 13.4671 1115.88 17.9777 1120.08 19.3382L1125.01 4.11557ZM1143.7 31.8647C1147.24 34.5124 1152.25 33.7915 1154.9 30.2544C1157.55 26.7174 1156.83 21.7036 1153.29 19.0559L1143.7 31.8647ZM1175.98 40.6652C1173.11 37.3066 1168.06 36.9112 1164.71 39.782C1161.35 42.6527 1160.95 47.7026 1163.82 51.0611L1175.98 40.6652ZM1180.84 74.3789C1183.2 78.1125 1188.14 79.2241 1191.88 76.8616C1195.61 74.4991 1196.72 69.5573 1194.36 65.8236L1180.84 74.3789ZM1209.3 92.2837C1207.3 88.3433 1202.48 86.7693 1198.54 88.7679C1194.6 90.7665 1193.03 95.5811 1195.03 99.5215L1209.3 92.2837ZM1207.08 125.502C1208.81 129.567 1213.51 131.459 1217.58 129.727C1221.64 127.995 1223.53 123.297 1221.8 119.232L1207.08 125.502ZM1233.27 148.35C1231.75 144.199 1227.16 142.063 1223.01 143.578C1218.86 145.093 1216.72 149.686 1218.24 153.836L1233.27 148.35ZM1227.38 180.49C1228.74 184.695 1233.24 187.003 1237.45 185.646C1241.65 184.289 1243.96 179.781 1242.6 175.576L1227.38 180.49ZM1251.68 205.445C1250.47 201.197 1246.04 198.741 1241.79 199.958C1237.54 201.176 1235.09 205.606 1236.3 209.853L1251.68 205.445ZM1243.75 237.162C1244.86 241.439 1249.23 244.005 1253.5 242.894C1257.78 241.784 1260.35 237.417 1259.24 233.14L1243.75 237.162ZM1266.53 262.601C1265.51 258.301 1261.2 255.638 1256.9 256.653C1252.6 257.668 1249.94 261.977 1250.96 266.277L1266.53 262.601ZM1257.7 296.327C1258.61 300.65 1262.86 303.416 1267.18 302.504C1271.5 301.593 1274.27 297.349 1273.36 293.026L1257.7 296.327ZM1279.18 322.651C1278.39 318.304 1274.22 315.423 1269.87 316.215C1265.53 317.007 1262.65 321.173 1263.44 325.52L1279.18 322.651ZM1268.35 354.799C1269.02 359.167 1273.11 362.164 1277.47 361.495C1281.84 360.825 1284.84 356.742 1284.17 352.374L1268.35 354.799ZM1288.32 382.306C1287.77 377.921 1283.78 374.807 1279.39 375.351C1275.01 375.894 1271.9 379.889 1272.44 384.274L1288.32 382.306ZM1275.66 413.78C1276.07 418.179 1279.98 421.409 1284.37 420.994C1288.77 420.579 1292 416.678 1291.59 412.279L1275.66 413.78ZM1293.97 442.399C1293.69 437.99 1289.89 434.645 1285.48 434.927C1281.07 435.21 1277.72 439.013 1278.01 443.423L1293.97 442.399ZM1279.46 473.083C1279.6 477.499 1283.3 480.958 1287.72 480.81C1292.14 480.662 1295.6 476.962 1295.45 472.546L1279.46 473.083ZM1296 502.73C1295.98 498.312 1292.39 494.74 1287.97 494.753C1283.56 494.765 1279.98 498.356 1280 502.775L1296 502.73ZM1279.61 532.497C1279.49 536.914 1282.97 540.596 1287.38 540.722C1291.8 540.848 1295.48 537.369 1295.61 532.953L1279.61 532.497ZM1294.28 563.074C1294.54 558.663 1291.18 554.873 1286.77 554.609C1282.36 554.344 1278.57 557.705 1278.31 562.115L1294.28 563.074ZM1276.05 591.791C1275.65 596.19 1278.89 600.085 1283.29 600.49C1287.69 600.894 1291.58 597.656 1291.98 593.256L1276.05 591.791ZM1288.75 623.186C1289.3 618.801 1286.18 614.805 1281.8 614.261C1277.41 613.717 1273.42 616.831 1272.88 621.216L1288.75 623.186ZM1268.73 650.724C1268.05 655.089 1271.03 659.183 1275.4 659.867C1279.76 660.551 1283.86 657.567 1284.54 653.202L1268.73 650.724ZM1279.4 682.887C1280.23 678.546 1277.37 674.36 1273.03 673.538C1268.69 672.715 1264.51 675.568 1263.68 679.909L1279.4 682.887ZM1257.68 709.061C1256.72 713.374 1259.43 717.648 1263.75 718.609C1268.06 719.569 1272.33 716.852 1273.29 712.539L1257.68 709.061ZM1266.27 741.893C1267.36 737.613 1264.78 733.254 1260.5 732.158C1256.22 731.062 1251.86 733.643 1250.77 737.923L1266.27 741.893ZM1242.95 766.574C1241.72 770.818 1244.16 775.255 1248.4 776.485C1252.65 777.715 1257.09 775.271 1258.32 771.028L1242.95 766.574ZM1249.45 799.926C1250.81 795.723 1248.51 791.212 1244.3 789.851C1240.1 788.489 1235.59 790.793 1234.23 794.997L1249.45 799.926ZM1224.66 823.055C1223.17 827.214 1225.34 831.794 1229.5 833.283C1233.66 834.773 1238.24 832.608 1239.73 828.448L1224.66 823.055ZM1229.09 856.782C1230.71 852.67 1228.68 848.027 1224.57 846.412C1220.46 844.797 1215.81 846.821 1214.2 850.934L1229.09 856.782ZM1202.94 878.402C1201.2 882.465 1203.08 887.166 1207.15 888.903C1211.21 890.64 1215.91 888.754 1217.65 884.692L1202.94 878.402ZM1205.37 912.284C1207.22 908.274 1205.48 903.519 1201.47 901.664C1197.46 899.809 1192.7 901.555 1190.85 905.565L1205.37 912.284ZM1177.97 932.372C1176 936.327 1177.61 941.13 1181.56 943.1C1185.52 945.07 1190.32 943.461 1192.29 939.507L1177.97 932.372ZM1178.48 966.283C1180.56 962.385 1179.09 957.539 1175.19 955.458C1171.29 953.377 1166.44 954.85 1164.36 958.748L1178.48 966.283ZM1149.97 984.829C1147.78 988.668 1149.12 993.553 1152.96 995.741C1156.8 997.929 1161.68 996.591 1163.87 992.753L1149.97 984.829ZM1148.58 1018.75C1150.87 1014.97 1149.67 1010.05 1145.89 1007.76C1142.11 1005.47 1137.19 1006.67 1134.9 1010.45L1148.58 1018.75ZM1119.14 1035.67C1116.75 1039.39 1117.83 1044.34 1121.54 1046.73C1125.26 1049.12 1130.21 1048.04 1132.6 1044.33L1119.14 1035.67ZM1115.93 1069.5C1118.42 1065.85 1117.47 1060.88 1113.82 1058.39C1110.17 1055.9 1105.19 1056.85 1102.71 1060.5L1115.93 1069.5ZM1085.67 1084.85C1083.1 1088.44 1083.92 1093.43 1087.5 1096.01C1091.09 1098.59 1096.09 1097.77 1098.67 1094.18L1085.67 1084.85ZM1080.75 1118.48C1083.41 1114.96 1082.72 1109.94 1079.2 1107.27C1075.67 1104.61 1070.66 1105.3 1067.99 1108.82L1080.75 1118.48ZM1049.73 1132.34C1046.98 1135.8 1047.55 1140.83 1051.01 1143.58C1054.47 1146.34 1059.5 1145.76 1062.25 1142.31L1049.73 1132.34ZM1043.24 1165.62C1046.07 1162.23 1045.62 1157.19 1042.23 1154.35C1038.84 1151.52 1033.79 1151.97 1030.96 1155.36L1043.24 1165.62ZM1011.56 1178.04C1008.65 1181.36 1008.99 1186.42 1012.31 1189.33C1015.63 1192.24 1020.69 1191.9 1023.6 1188.58L1011.56 1178.04ZM1003.48 1211.02C1006.47 1207.77 1006.25 1202.71 1002.99 1199.72C999.738 1196.73 994.677 1196.95 991.691 1200.21L1003.48 1211.02ZM971.355 1221.89C968.296 1225.08 968.402 1230.14 971.59 1233.2C974.778 1236.26 979.843 1236.15 982.901 1232.96L971.355 1221.89ZM961.748 1254.53C964.876 1251.41 964.884 1246.34 961.764 1243.22C958.644 1240.09 953.579 1240.08 950.45 1243.2L961.748 1254.53ZM929.136 1264C925.94 1267.05 925.823 1272.11 928.874 1275.31C931.925 1278.5 936.989 1278.62 940.184 1275.57L929.136 1264ZM918.224 1296.09C921.485 1293.1 921.711 1288.04 918.73 1284.78C915.748 1281.52 910.688 1281.3 907.427 1284.28L918.224 1296.09ZM885.163 1304.2C881.839 1307.12 881.505 1312.17 884.416 1315.49C887.327 1318.82 892.381 1319.15 895.705 1316.24L885.163 1304.2ZM872.822 1335.86C876.207 1333.02 876.648 1327.97 873.808 1324.59C870.968 1321.2 865.922 1320.76 862.538 1323.6L872.822 1335.86ZM839.579 1342.46C836.135 1345.23 835.588 1350.26 838.356 1353.71C841.124 1357.15 846.16 1357.7 849.603 1354.93L839.579 1342.46ZM825.888 1373.58C829.39 1370.89 830.044 1365.86 827.35 1362.36C824.655 1358.86 819.632 1358.21 816.131 1360.9L825.888 1373.58ZM792.28 1378.85C788.721 1381.47 787.96 1386.48 790.579 1390.04C793.198 1393.6 798.206 1394.36 801.764 1391.74L792.28 1378.85ZM777.314 1409.33C780.928 1406.79 781.797 1401.8 779.255 1398.19C776.714 1394.57 771.724 1393.71 768.109 1396.25L777.314 1409.33ZM743.63 1413.07C739.961 1415.53 738.982 1420.5 741.444 1424.17C743.905 1427.84 748.875 1428.81 752.544 1426.35L743.63 1413.07ZM727.337 1442.86C731.061 1440.48 732.152 1435.53 729.775 1431.81C727.397 1428.08 722.451 1426.99 718.727 1429.37L727.337 1442.86ZM693.374 1445.14C689.595 1447.43 688.387 1452.35 690.675 1456.13C692.964 1459.91 697.883 1461.12 701.662 1458.83L693.374 1445.14ZM675.63 1474.15C679.465 1471.96 680.796 1467.07 678.603 1463.24C676.41 1459.4 671.523 1458.07 667.687 1460.26L675.63 1474.15ZM641.652 1474.7C637.759 1476.78 636.296 1481.63 638.385 1485.53C640.474 1489.42 645.323 1490.88 649.217 1488.79L641.652 1474.7ZM622.39 1502.69C626.343 1500.72 627.95 1495.91 625.978 1491.96C624.005 1488 619.202 1486.4 615.248 1488.37L622.39 1502.69ZM12.7044 391.604C16.5391 388.816 20.5076 386.003 24.6017 383.175L15.5085 370.01C11.3102 372.91 7.2365 375.798 3.29564 378.663L12.7044 391.604ZM49.0074 367.113C57.0618 362.059 65.4601 357.021 74.1567 352.054L66.2223 338.16C57.3316 343.237 48.7433 348.389 40.5032 353.56L49.0074 367.113ZM99.8903 338.051C108.446 333.621 117.218 329.3 126.171 325.134L119.42 310.628C110.257 314.892 101.282 319.312 92.5334 323.842L99.8903 338.051ZM152.971 313.373C161.946 309.674 171.054 306.161 180.261 302.874L174.883 287.805C165.422 291.182 156.075 294.788 146.874 298.581L152.971 313.373ZM208.004 293.778C217.337 290.993 226.733 288.474 236.16 286.258L232.5 270.683C222.749 272.974 213.048 275.576 203.43 278.445L208.004 293.778ZM264.682 280.532C274.284 278.942 283.879 277.707 293.435 276.866L292.032 260.927C282.046 261.807 272.047 263.095 262.069 264.746L264.682 280.532ZM322.335 275.561C332.013 275.557 341.609 276.009 351.09 276.957L352.682 261.036C342.639 260.032 332.508 259.557 322.33 259.561L322.335 275.561ZM379.448 281.395C388.785 283.416 397.968 285.989 406.964 289.157L412.279 274.066C402.624 270.665 392.794 267.913 382.832 265.757L379.448 281.395ZM433.158 300.392C441.516 304.667 449.675 309.551 457.601 315.088L466.764 301.971C458.231 296.011 449.444 290.751 440.443 286.147L433.158 300.392ZM479.799 332.913C486.645 339.191 493.277 346.064 499.668 353.568L511.849 343.193C505.041 335.2 497.953 327.852 490.613 321.121L479.799 332.913ZM517.026 376.432C522.22 384.095 527.21 392.275 531.975 400.998L546.016 393.327C541.016 384.173 535.762 375.556 530.271 367.455L517.026 376.432ZM544.747 426.933C546.701 431.341 548.606 435.864 550.459 440.504L565.318 434.571C563.392 429.749 561.41 425.042 559.374 420.448L544.747 426.933ZM550.459 440.504C552.604 445.877 554.815 450.897 557.095 455.571L571.476 448.559C569.386 444.273 567.332 439.616 565.318 434.571L550.459 440.504ZM573.701 482.19C581.548 491.712 590.21 498.448 599.736 502.242L605.657 487.378C599.159 484.79 592.581 479.942 586.049 472.015L573.701 482.19ZM633.771 503.776C643.561 501.202 653.399 496.319 663.215 489.754L654.321 476.454C645.493 482.358 637.286 486.308 629.701 488.303L633.771 503.776ZM687.287 470.542C694.363 464.06 701.535 456.821 708.788 448.952L697.023 438.108C690.01 445.716 683.159 452.625 676.479 458.745L687.287 470.542ZM728.657 426.148C734.803 418.741 741.014 410.955 747.283 402.856L734.63 393.063C728.453 401.044 722.356 408.686 716.344 415.932L728.657 426.148ZM765.285 378.996C771.104 371.106 776.971 362.999 782.879 354.724L769.857 345.428C763.988 353.649 758.171 361.687 752.409 369.497L765.285 378.996ZM800.182 330.21C805.792 322.183 811.437 314.046 817.109 305.838L803.947 296.742C798.284 304.935 792.657 313.048 787.068 321.043L800.182 330.21ZM834.032 281.296C839.65 273.141 845.289 264.956 850.95 256.774L837.792 247.671C832.121 255.868 826.473 264.065 820.855 272.22L834.032 281.296ZM867.917 232.376C873.623 224.224 879.344 216.114 885.075 208.082L872.051 198.788C866.286 206.867 860.537 215.018 854.809 223.201L867.917 232.376ZM902.424 184.086C908.335 176.028 914.251 168.095 920.168 160.324L907.439 150.631C901.456 158.488 895.482 166.498 889.523 174.622L902.424 184.086ZM938.418 136.916C944.68 129.086 950.936 121.489 957.18 114.168L945.007 103.785C938.641 111.249 932.278 118.977 925.923 126.921L938.418 136.916ZM976.586 92.3122C983.483 84.8809 990.349 77.8597 997.177 71.3082L986.1 59.7627C979.02 66.5561 971.937 73.8016 964.859 81.4283L976.586 92.3122ZM1019.02 51.9143C1026.9 45.5146 1034.69 39.8716 1042.37 35.0658L1033.88 21.5023C1025.56 26.7109 1017.24 32.7516 1008.93 39.4947L1019.02 51.9143ZM1067.42 22.3126C1076.48 18.8314 1085.29 16.7593 1093.84 16.173L1092.75 0.210464C1082.36 0.921918 1071.99 3.41558 1061.68 7.37722L1067.42 22.3126ZM1120.08 19.3382C1127.96 21.8859 1135.83 25.9736 1143.7 31.8647L1153.29 19.0559C1144.15 12.2095 1134.71 7.25515 1125.01 4.11557L1120.08 19.3382ZM1163.82 51.0611C1169.53 57.7389 1175.21 65.4819 1180.84 74.3789L1194.36 65.8236C1188.38 56.3701 1182.25 47.998 1175.98 40.6652L1163.82 51.0611ZM1195.03 99.5215C1199.09 107.526 1203.11 116.177 1207.08 125.502L1221.8 119.232C1217.7 109.61 1213.53 100.635 1209.3 92.2837L1195.03 99.5215ZM1218.24 153.836C1221.32 162.278 1224.37 171.158 1227.38 180.49L1242.6 175.576C1239.54 166.065 1236.42 156.994 1233.27 148.35L1218.24 153.836ZM1236.3 209.853C1238.81 218.615 1241.3 227.715 1243.75 237.162L1259.24 233.14C1256.75 223.571 1254.23 214.341 1251.68 205.445L1236.3 209.853ZM1250.96 266.277C1252.14 271.302 1253.32 276.414 1254.49 281.614L1270.1 278.1C1268.92 272.847 1267.73 267.681 1266.53 262.601L1250.96 266.277ZM1254.49 281.614C1255.6 286.532 1256.67 291.436 1257.7 296.327L1273.36 293.026C1272.31 288.063 1271.22 283.088 1270.1 278.1L1254.49 281.614ZM1263.44 325.52C1265.23 335.333 1266.86 345.093 1268.35 354.799L1284.17 352.374C1282.66 342.519 1280.99 332.611 1279.18 322.651L1263.44 325.52ZM1272.44 384.274C1273.67 394.166 1274.74 404.002 1275.66 413.78L1291.59 412.279C1290.65 402.344 1289.56 392.353 1288.32 382.306L1272.44 384.274ZM1278.01 443.423C1278.64 453.37 1279.13 463.257 1279.46 473.083L1295.45 472.546C1295.11 462.558 1294.62 452.509 1293.97 442.399L1278.01 443.423ZM1280 502.775C1280.02 512.747 1279.9 522.655 1279.61 532.497L1295.61 532.953C1295.89 522.944 1296.02 512.87 1296 502.73L1280 502.775ZM1278.31 562.115C1277.71 572.076 1276.96 581.968 1276.05 591.791L1291.98 593.256C1292.9 583.265 1293.67 573.204 1294.28 563.074L1278.31 562.115ZM1272.88 621.216C1271.65 631.124 1270.26 640.961 1268.73 650.724L1284.54 653.202C1286.1 643.27 1287.5 633.265 1288.75 623.186L1272.88 621.216ZM1263.68 679.909C1261.83 689.702 1259.82 699.419 1257.68 709.061L1273.29 712.539C1275.48 702.733 1277.52 692.849 1279.4 682.887L1263.68 679.909ZM1250.77 737.923C1248.3 747.552 1245.69 757.102 1242.95 766.574L1258.32 771.028C1261.11 761.397 1263.76 751.685 1266.27 741.893L1250.77 737.923ZM1234.23 794.997C1231.17 804.431 1227.98 813.784 1224.66 823.055L1239.73 828.448C1243.1 819.025 1246.34 809.518 1249.45 799.926L1234.23 794.997ZM1214.2 850.934C1210.57 860.175 1206.81 869.331 1202.94 878.402L1217.65 884.692C1221.59 875.476 1225.4 866.173 1229.09 856.782L1214.2 850.934ZM1190.85 905.565C1186.67 914.589 1182.38 923.525 1177.97 932.372L1192.29 939.507C1196.77 930.523 1201.13 921.449 1205.37 912.284L1190.85 905.565ZM1164.36 958.748C1159.67 967.533 1154.87 976.227 1149.97 984.829L1163.87 992.753C1168.85 984.024 1173.72 975.201 1178.48 966.283L1164.36 958.748ZM1134.9 1010.45C1129.74 1018.95 1124.49 1027.36 1119.14 1035.67L1132.6 1044.33C1138.02 1035.9 1143.35 1027.37 1148.58 1018.75L1134.9 1010.45ZM1102.71 1060.5C1097.11 1068.71 1091.43 1076.83 1085.67 1084.85L1098.67 1094.18C1104.51 1086.06 1110.26 1077.83 1115.93 1069.5L1102.71 1060.5ZM1067.99 1108.82C1061.98 1116.77 1055.89 1124.61 1049.73 1132.34L1062.25 1142.31C1068.49 1134.47 1074.66 1126.53 1080.75 1118.48L1067.99 1108.82ZM1030.96 1155.36C1024.56 1163.03 1018.09 1170.59 1011.56 1178.04L1023.6 1188.58C1030.2 1181.04 1036.75 1173.39 1043.24 1165.62L1030.96 1155.36ZM991.691 1200.21C984.96 1207.55 978.179 1214.77 971.355 1221.89L982.901 1232.96C989.807 1225.76 996.67 1218.45 1003.48 1211.02L991.691 1200.21ZM950.45 1243.2C943.379 1250.25 936.271 1257.18 929.136 1264L940.184 1275.57C947.403 1268.68 954.594 1261.66 961.748 1254.53L950.45 1243.2ZM907.427 1284.28C900.023 1291.05 892.598 1297.69 885.163 1304.2L895.705 1316.24C903.226 1309.65 910.735 1302.93 918.224 1296.09L907.427 1284.28ZM862.538 1323.6C854.883 1330.03 847.227 1336.31 839.579 1342.46L849.603 1354.93C857.338 1348.71 865.081 1342.35 872.822 1335.86L862.538 1323.6ZM816.131 1360.9C808.156 1367.04 800.201 1373.02 792.28 1378.85L801.764 1391.74C809.777 1385.84 817.823 1379.79 825.888 1373.58L816.131 1360.9ZM768.109 1396.25C759.896 1402.02 751.732 1407.63 743.63 1413.07L752.544 1426.35C760.744 1420.85 769.005 1415.18 777.314 1409.33L768.109 1396.25ZM718.727 1429.37C710.182 1434.83 701.726 1440.08 693.374 1445.14L701.662 1458.83C710.123 1453.7 718.687 1448.38 727.337 1442.86L718.727 1429.37ZM667.687 1460.26C658.857 1465.31 650.171 1470.12 641.652 1474.7L649.217 1488.79C657.865 1484.15 666.677 1479.27 675.63 1474.15L667.687 1460.26ZM615.248 1488.37C610.818 1490.58 606.444 1492.72 602.129 1494.78L609.04 1509.22C613.433 1507.11 617.884 1504.94 622.39 1502.69L615.248 1488.37Z" fill="#FFCD29"/>
</svg>
