<svg width="41" height="41" viewBox="0 0 41 41" fill="none" xmlns="http://www.w3.org/2000/svg">
<path d="M20.4444 0C9.17751 0 0 9.17751 0 20.4444C0 31.7114 9.17751 40.8889 20.4444 40.8889C31.7114 40.8889 40.8889 31.7114 40.8889 20.4444C40.8889 9.17751 31.7114 0 20.4444 0ZM20.4444 4.08889C29.5016 4.08889 36.8 11.3873 36.8 20.4444C36.8 28.6518 30.8002 35.3955 22.9361 36.5924V25.32H27.6958L28.4425 20.4844H22.9361V17.841C22.9361 15.8313 23.5908 14.0476 25.4717 14.0476H28.4905V9.82691C27.9589 9.75535 26.8371 9.59931 24.717 9.59931C20.2887 9.59931 17.6932 11.9381 17.6932 17.266V20.4844H13.1411V25.32H17.6932V36.5524C9.95704 35.248 4.08889 28.5614 4.08889 20.4444C4.08889 11.3873 11.3873 4.08889 20.4444 4.08889Z" fill="black"/>
</svg>
