<svg width="41" height="41" viewBox="0 0 41 41" fill="none" xmlns="http://www.w3.org/2000/svg">
<path d="M11.4691 0C5.20629 0 0.111084 5.09521 0.111084 11.358V29.5309C0.111084 35.7937 5.20629 40.8889 11.4691 40.8889H29.6419C35.9048 40.8889 41 35.7937 41 29.5309V11.358C41 5.09521 35.9048 0 29.6419 0H11.4691ZM11.4691 4.54321H29.6419C33.3992 4.54321 36.4568 7.60079 36.4568 11.358V29.5309C36.4568 33.2881 33.3992 36.3457 29.6419 36.3457H11.4691C7.71187 36.3457 4.65429 33.2881 4.65429 29.5309V11.358C4.65429 7.60079 7.71187 4.54321 11.4691 4.54321ZM31.9136 6.81482C31.3111 6.81482 30.7333 7.05414 30.3073 7.48015C29.8813 7.90616 29.6419 8.48395 29.6419 9.08642C29.6419 9.68889 29.8813 10.2667 30.3073 10.6927C30.7333 11.1187 31.3111 11.358 31.9136 11.358C32.516 11.358 33.0938 11.1187 33.5198 10.6927C33.9458 10.2667 34.1852 9.68889 34.1852 9.08642C34.1852 8.48395 33.9458 7.90616 33.5198 7.48015C33.0938 7.05414 32.516 6.81482 31.9136 6.81482ZM20.5555 9.08642C14.2927 9.08642 9.1975 14.1816 9.1975 20.4444C9.1975 26.7073 14.2927 31.8025 20.5555 31.8025C26.8183 31.8025 31.9136 26.7073 31.9136 20.4444C31.9136 14.1816 26.8183 9.08642 20.5555 9.08642ZM20.5555 13.6296C24.3128 13.6296 27.3703 16.6872 27.3703 20.4444C27.3703 24.2017 24.3128 27.2593 20.5555 27.2593C16.7983 27.2593 13.7407 24.2017 13.7407 20.4444C13.7407 16.6872 16.7983 13.6296 20.5555 13.6296Z" fill="black"/>
</svg>
