<svg width="18" height="20" viewBox="0 0 18 20" fill="none" xmlns="http://www.w3.org/2000/svg">
<path d="M3.65665 0.297249C2.95909 -0.104662 2.14007 -0.0953689 1.44696 0.303057L9.57033 8.11475L12.2993 5.27002L3.65665 0.297249Z" fill="white"/>
<path d="M0.320195 1.47559C0.116643 1.82636 0 2.22776 0 2.65326V17.2941C0 17.7063 0.106351 18.0993 0.298468 18.4428L8.68186 9.60601L0.320195 1.47559Z" fill="white"/>
<path d="M16.2668 7.43231L13.7173 5.90161L10.8523 9.01763L14.3634 12.541L16.2679 11.3974C16.9533 10.9841 17.3637 10.2431 17.3637 9.41425C17.3626 8.58537 16.9533 7.84437 16.2668 7.43231Z" fill="white"/>
<path d="M9.6662 10.4099L1.44696 19.6506C1.80364 19.8794 2.19498 20.0001 2.58855 20.0001C2.96871 20.0001 3.35111 19.892 3.70108 19.6745L13.0228 13.8907L9.6662 10.4099Z" fill="white"/>
</svg>
